<svg width="245" height="163" viewBox="0 0 245 163" fill="none" xmlns="http://www.w3.org/2000/svg">
<g clip-path="url(#clip0_191_1073)">
<path d="M215.22 0.645752H29.3814C24.0283 0.645752 19.6888 4.98527 19.6888 10.3383V142.404C19.6888 147.757 24.0283 152.097 29.3814 152.097H215.22C220.573 152.097 224.913 147.757 224.913 142.404V10.3383C224.913 4.98527 220.573 0.645752 215.22 0.645752Z" fill="white"/>
<path d="M204.119 13.3236H38.8636C36.1873 13.3236 34.0177 15.4932 34.0177 18.1695V134.572C34.0177 137.248 36.1873 139.418 38.8636 139.418H204.119C206.795 139.418 208.965 137.248 208.965 134.572V18.1695C208.965 15.4932 206.795 13.3236 204.119 13.3236Z" fill="#2E2753"/>
<path d="M34.0967 110.674H209.419V134.614C209.419 135.899 208.908 137.132 208 138.041C207.091 138.95 205.858 139.461 204.572 139.461H38.9435C38.3069 139.461 37.6766 139.335 37.0885 139.091C36.5004 138.848 35.9661 138.491 35.516 138.041C35.0659 137.59 34.7089 137.056 34.4654 136.468C34.2219 135.88 34.0966 135.249 34.0967 134.613V110.672V110.674Z" fill="#64FCD9"/>
<path d="M71.5098 124.902L74.8369 128.192C74.9532 128.307 75.1103 128.372 75.274 128.372C75.4378 128.372 75.5949 128.307 75.7112 128.192L82.0626 121.907" stroke="#2E2753" stroke-width="2.79531" stroke-linecap="round"/>
<path d="M175.895 33.6302H72.9497C71.095 33.6302 69.5916 35.1337 69.5916 36.9883V36.9892C69.5916 38.8439 71.095 40.3473 72.9497 40.3473H175.895C177.75 40.3473 179.253 38.8439 179.253 36.9892V36.9883C179.253 35.1337 177.75 33.6302 175.895 33.6302Z" fill="#D2E4E8"/>
<path d="M105.566 33.6302H72.9497C71.095 33.6302 69.5916 35.1337 69.5916 36.9883V36.9892C69.5916 38.8439 71.095 40.3473 72.9497 40.3473H105.566C107.42 40.3473 108.924 38.8439 108.924 36.9892V36.9883C108.924 35.1337 107.42 33.6302 105.566 33.6302Z" fill="#64FCD9"/>
<path d="M1.61558 147.501H242.985C243.197 147.501 243.407 147.543 243.603 147.624C243.8 147.705 243.978 147.824 244.128 147.975C244.278 148.125 244.397 148.303 244.478 148.499C244.559 148.695 244.601 148.905 244.601 149.118V154.776C244.601 158.793 241.346 162.05 237.33 162.05H7.27011C3.25513 162.05 2.43891e-07 158.792 2.43891e-07 154.776V149.118C-0.000116369 148.905 0.0415858 148.695 0.122724 148.499C0.203862 148.303 0.322847 148.125 0.472879 147.975C0.622911 147.824 0.80105 147.705 0.997119 147.624C1.19319 147.543 1.40334 147.501 1.61558 147.501Z" fill="#C4C4C4"/>
<path opacity="0.4" d="M147.256 121.749H91.6149C90.8202 121.749 90.176 122.394 90.176 123.188V123.189C90.176 123.984 90.8202 124.628 91.6149 124.628H147.256C148.05 124.628 148.695 123.984 148.695 123.189V123.188C148.695 122.394 148.05 121.749 147.256 121.749Z" fill="#2E2753"/>
<path opacity="0.4" d="M119.435 127.507H91.6149C90.8202 127.507 90.176 128.151 90.176 128.946V128.947C90.176 129.741 90.8202 130.386 91.6149 130.386H119.435C120.23 130.386 120.874 129.741 120.874 128.947V128.946C120.874 128.151 120.23 127.507 119.435 127.507Z" fill="#2E2753"/>
<path d="M93.5376 59.6987H75.1431C72.4957 59.6987 70.3496 61.8448 70.3496 64.4922V85.2924C70.3496 87.9397 72.4957 90.0858 75.1431 90.0858H93.5376C96.185 90.0858 98.3311 87.9397 98.3311 85.2924V64.4922C98.3311 61.8448 96.185 59.6987 93.5376 59.6987Z" stroke="#D2E4E8" stroke-width="1.59783"/>
<path d="M133.509 59.6987H115.115C112.467 59.6987 110.321 61.8448 110.321 64.4922V85.2924C110.321 87.9397 112.467 90.0858 115.115 90.0858H133.509C136.156 90.0858 138.303 87.9397 138.303 85.2924V64.4922C138.303 61.8448 136.156 59.6987 133.509 59.6987Z" fill="#D2E4E8" stroke="#D2E4E8" stroke-width="1.59783"/>
<path d="M173.48 59.6987H155.086C152.439 59.6987 150.292 61.8448 150.292 64.4922V85.2924C150.292 87.9397 152.439 90.0858 155.086 90.0858H173.48C176.128 90.0858 178.274 87.9397 178.274 85.2924V64.4922C178.274 61.8448 176.128 59.6987 173.48 59.6987Z" stroke="#D2E4E8" stroke-width="1.59783"/>
</g>
<defs>
<clipPath id="clip0_191_1073">
<rect width="245" height="161.558" fill="white" transform="translate(0 0.492188)"/>
</clipPath>
</defs>
</svg>
