<svg width="20" height="21" viewBox="0 0 20 21" fill="none" xmlns="http://www.w3.org/2000/svg">
<g clip-path="url(#clip0_174_135)">
<path d="M14.1667 12.4278H10.5492C10.156 13.5398 9.38239 14.477 8.36504 15.0738C7.34769 15.6706 6.15211 15.8886 4.98962 15.6891C3.82713 15.4897 2.77257 14.8857 2.01233 13.9839C1.2521 13.0821 0.835129 11.9406 0.835129 10.7611C0.835129 9.58164 1.2521 8.44013 2.01233 7.53835C2.77257 6.63657 3.82713 6.03258 4.98962 5.83313C6.15211 5.63367 7.34769 5.8516 8.36504 6.4484C9.38239 7.04519 10.156 7.98243 10.5492 9.09445H19.1667V12.4278H17.5V15.7611H14.1667V12.4278ZM5.83334 12.4278C6.27537 12.4278 6.69929 12.2522 7.01185 11.9396C7.32441 11.6271 7.50001 11.2031 7.50001 10.7611C7.50001 10.3191 7.32441 9.89517 7.01185 9.58261C6.69929 9.27005 6.27537 9.09445 5.83334 9.09445C5.39131 9.09445 4.96739 9.27005 4.65483 9.58261C4.34227 9.89517 4.16667 10.3191 4.16667 10.7611C4.16667 11.2031 4.34227 11.6271 4.65483 11.9396C4.96739 12.2522 5.39131 12.4278 5.83334 12.4278V12.4278Z" fill="#64FCD9"/>
</g>
<defs>
<clipPath id="clip0_174_135">
<rect width="20" height="20" fill="white" transform="translate(0 0.761108)"/>
</clipPath>
</defs>
</svg>
