<svg width="20" height="21" viewBox="0 0 20 21" fill="none" xmlns="http://www.w3.org/2000/svg">
<g clip-path="url(#clip0_174_136)">
<path d="M1.86917 6.47277L9.57501 1.85277C9.70452 1.77506 9.85272 1.73401 10.0038 1.73401C10.1548 1.73401 10.303 1.77506 10.4325 1.85277L18.1308 6.4736C18.1926 6.51061 18.2437 6.563 18.2792 6.62565C18.3147 6.68831 18.3334 6.75909 18.3333 6.8311V17.4278C18.3333 17.6488 18.2455 17.8607 18.0893 18.017C17.933 18.1733 17.721 18.2611 17.5 18.2611H2.50001C2.27899 18.2611 2.06703 18.1733 1.91075 18.017C1.75447 17.8607 1.66667 17.6488 1.66667 17.4278V6.83027C1.66666 6.75826 1.6853 6.68748 1.72079 6.62482C1.75628 6.56217 1.8074 6.50978 1.86917 6.47277ZM3.33334 7.5386V16.5944H16.6667V7.53777L10.0033 3.53777L3.33334 7.53777V7.5386ZM10.05 12.1761L14.4633 8.45693L15.5367 9.73193L10.0617 14.3461L4.47001 9.73777L5.53001 8.4511L10.05 12.1761Z" fill="#64FCD9"/>
</g>
<defs>
<clipPath id="clip0_174_136">
<rect width="20" height="20" fill="white" transform="translate(0 0.761108)"/>
</clipPath>
</defs>
</svg>
