<svg width="43" height="44" viewBox="0 0 43 44" fill="none" xmlns="http://www.w3.org/2000/svg">
<path d="M21.9388 36.0004C27.7547 36.0004 32.4694 31.3274 32.4694 25.5628C32.4694 19.7983 27.7547 15.1252 21.9388 15.1252C16.1229 15.1252 11.4082 19.7983 11.4082 25.5628C11.4082 31.3274 16.1229 36.0004 21.9388 36.0004Z" fill="#FF9600"/>
<path fill-rule="evenodd" clip-rule="evenodd" d="M23.4885 10.4664L30.1614 19.0278C30.3727 19.2988 30.5036 19.6236 30.5392 19.9653C30.5748 20.3071 30.5137 20.6519 30.3629 20.9606C30.212 21.2693 29.9775 21.5294 29.6861 21.7114C29.3946 21.8933 29.0579 21.9897 28.7144 21.9895H15.1641C14.8206 21.9897 14.484 21.8934 14.1925 21.7116C13.9011 21.5298 13.6666 21.2698 13.5157 20.9612C13.3648 20.6526 13.3035 20.3079 13.339 19.9662C13.3744 19.6246 13.5051 19.2997 13.7161 19.0287L20.389 10.4664C20.5729 10.2308 20.808 10.0403 21.0765 9.90917C21.3451 9.77809 21.64 9.70996 21.9388 9.70996C22.2376 9.70996 22.5325 9.77809 22.801 9.90917C23.0696 10.0403 23.3047 10.2308 23.4885 10.4664Z" fill="#FF9600"/>
<path fill-rule="evenodd" clip-rule="evenodd" d="M14.4375 14.0178L27.9228 22.7012C28.245 22.9087 28.4941 23.212 28.6351 23.5684C28.776 23.9248 28.8018 24.3165 28.7088 24.6883C28.6157 25.0601 28.4085 25.3934 28.1163 25.6414C27.8241 25.8894 27.4615 26.0396 27.0795 26.071L13.3923 27.1942C13.1398 27.215 12.8857 27.1831 12.6461 27.1008C12.4065 27.0185 12.1866 26.8874 12.0002 26.7158C11.8138 26.5442 11.6649 26.3359 11.563 26.1039C11.4611 25.872 11.4084 25.6214 11.4082 25.368V15.6702C11.4083 15.3172 11.5035 14.9707 11.6837 14.6672C11.864 14.3637 12.1227 14.1143 12.4326 13.9452C12.7425 13.7762 13.0922 13.6937 13.445 13.7065C13.7978 13.7193 14.1406 13.8268 14.4375 14.0178Z" fill="#FF9600"/>
<path d="M21.9388 31.7453C24.4207 31.7453 26.4327 29.7627 26.4327 27.3172C26.4327 24.8716 24.4207 22.889 21.9388 22.889C19.4568 22.889 17.4448 24.8716 17.4448 27.3172C17.4448 29.7627 19.4568 31.7453 21.9388 31.7453Z" fill="#FFC800"/>
<path fill-rule="evenodd" clip-rule="evenodd" d="M22.6013 20.9137L25.4367 24.5309C25.5277 24.6468 25.5844 24.786 25.6001 24.9325C25.6158 25.0791 25.5899 25.2271 25.5255 25.3596C25.461 25.4922 25.3606 25.6039 25.2356 25.6821C25.1107 25.7603 24.9663 25.8017 24.8189 25.8016H19.0586C18.9113 25.8017 18.7668 25.7603 18.6419 25.6821C18.5169 25.6039 18.4165 25.4922 18.352 25.3596C18.2876 25.2271 18.2617 25.0791 18.2775 24.9325C18.2932 24.786 18.3498 24.6468 18.4408 24.5309L21.2762 20.9137C21.355 20.8133 21.4556 20.7322 21.5704 20.6763C21.6852 20.6205 21.8111 20.5916 21.9388 20.5916C22.0664 20.5916 22.1923 20.6205 22.3071 20.6763C22.4219 20.7322 22.5225 20.8133 22.6013 20.9137Z" fill="#FFC800"/>
</svg>
